<svg id="visual" viewBox="0 0 960 540" width="960" height="540" xmlns="http://www.w3.org/2000/svg" xmlns:xlink="http://www.w3.org/1999/xlink" version="1.1"><rect x="0" y="0" width="960" height="540" fill="#181716"></rect><path d="M0 132L40 116.3C80 100.7 160 69.3 240 60.5C320 51.7 400 65.3 480 93.2C560 121 640 163 720 162.2C800 161.3 880 117.7 920 95.8L960 74L960 0L920 0C880 0 800 0 720 0C640 0 560 0 480 0C400 0 320 0 240 0C160 0 80 0 40 0L0 0Z" fill="#ed6f3f" stroke-linecap="round" stroke-linejoin="miter"></path></svg>